HIERARCHY
ROOT Pelvis
{
	OFFSET 0.000000 0.000000 0.000000
	CHANNELS 6 Xposition Yposition Zposition Zrotation Yrotation Xrotation 
	JOINT Left_hip
	{
		OFFSET 0.069463 -0.088608 -0.009542
		CHANNELS 3 Zrotation Yrotation Xrotation
		JOINT Left_knee
		{
			OFFSET 0.030639 -0.359740 -0.005288
			CHANNELS 3 Zrotation Yrotation Xrotation
			JOINT Left_ankle
			{
				OFFSET -0.011068 -0.376034 -0.042462
				CHANNELS 3 Zrotation Yrotation Xrotation
				JOINT Left_foot
				{
					OFFSET 0.023192 -0.053321 0.111332
					CHANNELS 3 Zrotation Yrotation Xrotation
					End Site
					{
						OFFSET 0.000000 0.000000 0.000000
					}
				}
			}
		}
	}
	JOINT Right_hip
	{
		OFFSET -0.067438 -0.088025 -0.006263
		CHANNELS 3 Zrotation Yrotation Xrotation
		JOINT Right_knee
		{
			OFFSET -0.035962 -0.366229 -0.008063
			CHANNELS 3 Zrotation Yrotation Xrotation
			JOINT Right_ankle
			{
				OFFSET 0.013608 -0.375719 -0.040481
				CHANNELS 3 Zrotation Yrotation Xrotation
				JOINT Right_foot
				{
					OFFSET -0.021034 -0.045527 0.114617
					CHANNELS 3 Zrotation Yrotation Xrotation
					End Site
					{
						OFFSET 0.000000 0.000000 0.000000
					}
				}
			}
		}
	}
	JOINT Spine1
	{
		OFFSET -0.002610 0.101823 -0.019986
		CHANNELS 3 Zrotation Yrotation Xrotation
		JOINT Spine2
		{
			OFFSET 0.004114 0.128714 -0.000938
			CHANNELS 3 Zrotation Yrotation Xrotation
			JOINT Spine3
			{
				OFFSET 0.002191 0.048470 0.027684
				CHANNELS 3 Zrotation Yrotation Xrotation
				JOINT Neck
				{
					OFFSET -0.002856 0.198873 -0.044022
					CHANNELS 3 Zrotation Yrotation Xrotation
					JOINT Head
					{
						OFFSET 0.002981 0.062960 0.049860
						CHANNELS 3 Zrotation Yrotation Xrotation
						End Site
						{
							OFFSET 0.000000 0.000000 0.000000
						}
					}
				}
				JOINT Left_collar
				{
					OFFSET 0.073708 0.112550 -0.033440
					CHANNELS 3 Zrotation Yrotation Xrotation
					JOINT Left_shoulder
					{
						OFFSET 0.083291 0.030786 -0.008013
						CHANNELS 3 Zrotation Yrotation Xrotation
						JOINT Left_elbow
						{
							OFFSET 0.245601 -0.011792 -0.027873
							CHANNELS 3 Zrotation Yrotation Xrotation
							JOINT Left_wrist
							{
								OFFSET 0.232258 0.008622 -0.000487
								CHANNELS 3 Zrotation Yrotation Xrotation
								JOINT Left_palm
								{
									OFFSET 0.077300 -0.009457 -0.012851
									CHANNELS 3 Zrotation Yrotation Xrotation
									End Site
									{
										OFFSET 0.000000 0.000000 0.000000
									}
								}
							}
						}
					}
				}
				JOINT Right_collar
				{
					OFFSET -0.075339 0.110574 -0.037874
					CHANNELS 3 Zrotation Yrotation Xrotation
					JOINT Right_shoulder
					{
						OFFSET -0.086522 0.031207 -0.009986
						CHANNELS 3 Zrotation Yrotation Xrotation
						JOINT Right_elbow
						{
							OFFSET -0.237313 -0.011478 -0.019859
							CHANNELS 3 Zrotation Yrotation Xrotation
							JOINT Right_wrist
							{
								OFFSET -0.237599 0.007976 -0.003742
								CHANNELS 3 Zrotation Yrotation Xrotation
								JOINT Right_palm
								{
									OFFSET -0.076920 -0.006943 -0.009920
									CHANNELS 3 Zrotation Yrotation Xrotation
									End Site
									{
										OFFSET 0.000000 0.000000 0.000000
									}
								}
							}
						}
					}
				}
			}
		}
	}
}
MOTION
Frames: 9
Frame Time: 0.100000
0.042288 0.328437 -0.359869 177.317814 21.312116 -32.593950 6.193608 -0.435132 -46.667364 -4.611323 9.685039 68.840527 5.985258 6.324491 4.092917 -14.866217 6.542209 -14.053200 -4.857333 2.022481 -45.255595 -5.870652 -14.482041 73.500481 -11.900835 4.354108 -3.905148 31.737059 -26.109182 -6.831732 0.546078 -2.790013 53.288712 3.949108 -4.382127 -12.091964 2.967645 -3.120639 -2.855040 -22.648619 -10.561477 14.080644 1.725482 -10.183830 -4.416989 -6.691670 -21.695632 -3.800784 -16.461301 -33.688843 -5.213071 110.598663 -61.472109 -80.725241 29.892004 -17.159285 16.437173 -5.216479 4.111195 -2.445556 15.740360 16.598703 2.306416 57.020225 -2.839803 21.822309 -148.852161 79.449448 -115.960669 -17.193291 8.615579 -10.147944 -1.620403 6.932931 4.161557 
0.044047 0.330613 -0.360399 177.502035 21.480710 -33.322922 5.614883 0.097477 -45.914237 -5.162032 8.819799 68.776539 4.515394 8.273505 3.537776 -11.940320 3.226037 -12.419084 -4.939634 2.419323 -44.404740 -5.738441 -14.559751 73.444103 -11.966844 4.533418 -5.112149 32.594745 -29.329560 -6.095783 0.192173 -2.217110 54.259308 4.682760 -5.205816 -11.865195 2.838460 -2.679335 -2.950517 -24.077105 -5.699040 13.264096 -0.320919 -9.296226 -4.254341 -2.637877 -23.278265 -3.756591 -12.114817 -27.083778 0.599450 138.928786 -73.973610 -99.590259 30.835975 -27.813009 27.805781 -9.400954 4.735702 -10.814600 14.571006 18.130771 2.136678 56.314770 -3.555408 21.170201 -153.910229 79.963882 -119.009467 -18.865075 11.759645 -9.228594 -0.766024 6.146570 0.779066 
0.044849 0.331308 -0.361380 177.658266 21.080588 -33.166164 6.009078 0.284274 -46.051826 -5.247940 9.108425 68.763369 4.312307 8.339914 3.647887 -12.256510 3.113658 -11.873759 -4.592678 2.657871 -44.621916 -5.487672 -14.198194 73.245438 -11.889267 4.018457 -4.780374 32.328604 -28.370066 -6.131936 0.044306 -2.398280 54.361129 4.343869 -5.212040 -12.248755 2.774917 -2.736892 -2.679324 -24.455859 -5.294478 13.697177 -0.519959 -7.671618 -4.117823 -3.776302 -22.383325 -3.487980 -11.047538 -25.612320 -2.271145 113.671964 -71.290730 -79.651701 34.351826 -26.744157 24.573374 -8.530362 4.309265 -9.254965 14.753317 17.701315 1.944990 54.934866 -2.950634 21.663625 -160.278129 80.147824 -125.676481 -20.615177 12.118984 -6.948315 -1.120769 6.456386 1.571190 
0.043618 0.329377 -0.360001 177.291793 21.479722 -33.129969 5.793333 0.199711 -46.132590 -5.386629 8.793292 68.748897 4.777463 8.281980 3.788583 -12.761842 2.837714 -12.298264 -4.631567 2.535719 -44.526673 -5.697869 -14.289269 73.269468 -12.354688 4.321709 -5.035924 33.546871 -29.463290 -6.244589 -0.048178 -2.223153 54.160782 4.356382 -5.075987 -12.632911 2.709179 -2.599299 -2.763688 -24.073351 -5.565669 14.474462 0.068857 -8.234953 -4.183219 -3.009876 -21.807961 -3.585201 -10.496435 -25.398133 -0.122664 140.376855 -74.459187 -102.691542 32.700598 -28.713919 25.681106 -9.182105 4.607965 -10.271774 14.393328 17.408681 2.176660 55.453738 -3.733241 21.492388 -161.362436 80.290820 -126.717112 -20.959904 12.470693 -8.283532 -0.711940 6.388515 0.949303 
0.041299 0.329727 -0.360960 177.139937 21.444362 -32.999434 6.190781 -0.192276 -46.717997 -5.267316 9.388072 69.087055 3.990876 8.456116 4.088215 -11.424256 2.395520 -12.186713 -4.826050 2.456763 -44.865724 -5.741739 -14.408274 73.431036 -11.628085 4.225654 -4.839019 31.447973 -28.838337 -6.029515 0.110407 -2.355350 53.635612 4.257614 -5.108972 -12.377251 2.732607 -2.529636 -2.632856 -24.547163 -6.570626 14.391576 0.629568 -8.135815 -4.065190 -3.330807 -22.294675 -2.956865 -13.262836 -26.055791 0.070365 127.648717 -69.820441 -93.727809 36.586116 -25.713963 19.029950 -8.584618 4.554050 -7.976725 13.945138 17.959624 2.233688 55.684019 -2.707668 21.600750 -159.213998 79.725023 -125.146945 -21.087031 11.836333 -8.262454 -1.617957 6.367195 1.686580 
0.039320 0.328473 -0.360631 176.616190 21.870429 -33.288405 6.521701 -0.806348 -46.745482 -5.000024 9.942178 69.216037 4.486667 7.454892 4.750601 -12.059344 3.168291 -13.532588 -4.964078 1.920591 -44.494946 -5.821222 -14.590672 73.441458 -11.875047 4.334862 -4.898670 30.755794 -28.148495 -5.710050 0.370176 -2.589616 51.988363 3.986022 -4.699815 -11.478179 2.569499 -2.470719 -2.988257 -23.638228 -7.886073 14.954401 1.094220 -8.179399 -4.113695 -5.787132 -20.845554 -1.809192 -18.331960 -27.325234 3.837284 146.676642 -71.156147 -113.810029 26.712872 -20.295763 10.354578 -7.416783 4.219607 -4.777234 14.787066 17.155432 3.132699 55.023289 -1.163240 21.636112 -155.903935 79.420719 -122.906905 -17.331399 10.387054 -7.957416 -0.532802 7.132083 1.640210 
0.038059 0.329782 -0.360871 176.362470 21.580341 -33.339318 7.641766 -1.789570 -47.358537 -4.609230 11.171665 69.854567 3.621638 7.240941 5.153311 -9.922590 3.741360 -14.562522 -4.890437 1.996365 -44.830167 -5.827297 -14.657392 73.804563 -10.442163 3.499678 -4.417323 25.854991 -26.315790 -5.542060 0.737398 -3.174914 49.537140 3.247168 -3.937346 -10.782148 2.723777 -2.618253 -2.837849 -19.573495 -12.521782 13.733827 4.643234 -5.933751 -4.564955 -12.470508 -17.154652 1.837330 -32.445223 -24.672873 9.426440 129.718320 -66.834911 -105.552062 26.612469 -11.112308 -8.092672 -5.509564 3.037871 0.156185 15.032669 15.387149 3.629183 54.952663 0.395867 22.114652 -154.916671 78.505016 -124.984492 -16.338451 8.322033 -8.555805 -1.812782 7.401337 3.169189 
0.040127 0.334767 -0.362285 175.648489 21.390034 -35.570578 8.101804 -2.392205 -45.611101 -4.567097 10.926262 70.146230 4.432331 6.394832 4.772735 -10.785504 6.343935 -15.852342 -4.057234 2.069507 -42.902091 -5.959579 -14.703800 73.866436 -10.826088 2.874304 -4.169372 25.682024 -25.314414 -6.397116 1.055436 -3.250304 48.765902 1.931602 -2.242407 -9.940376 2.650682 -2.488387 -2.792949 -11.858343 -18.104893 13.740801 8.970621 -4.812503 -4.027714 -20.999744 -9.854201 4.021645 -43.961047 -19.286034 12.072989 117.333064 -66.170767 -97.272623 21.442346 -5.687687 -16.688800 -3.447764 1.708108 1.915203 16.565242 12.152758 3.985956 54.999609 0.757569 21.908747 -152.330328 78.855187 -124.066165 -15.289533 6.681773 -7.306780 -2.385339 7.737103 4.528076 
0.043521 0.340346 -0.364662 175.022623 21.003212 -39.017604 8.157176 -2.655645 -42.272805 -4.910457 9.895896 70.049933 4.100870 7.356988 3.285643 -9.167221 6.568105 -15.043205 -2.925296 2.354971 -39.380960 -5.837103 -14.821375 73.353652 -11.258691 2.217295 -4.787732 25.515415 -25.578386 -6.469383 0.932030 -2.709042 48.143880 1.561423 -1.443343 -8.336878 2.687615 -2.169387 -2.650417 -6.851754 -21.240136 15.908235 11.559319 -4.669988 -2.639305 -26.215123 -3.952201 6.394570 -50.209366 -9.559166 12.845887 101.036322 -68.677452 -83.331774 19.745803 -3.448899 -18.800530 -3.694808 0.817676 -1.100824 17.921094 10.417469 4.588103 55.653315 0.616259 21.379566 -150.424506 79.861535 -123.319703 -15.390120 5.926963 -6.480496 -2.259977 7.761821 3.962583 
